<mxfile host="app.diagrams.net" agent="Mozilla/5.0 (X11; Linux x86_64) AppleWebKit/537.36 (KHTML, like Gecko) Chrome/135.0.0.0 Safari/537.36" version="26.2.14">
  <diagram name="Página-1" id="IViHX7-AiiJDv39JWF-3">
    <mxGraphModel dx="1360" dy="793" grid="1" gridSize="10" guides="1" tooltips="1" connect="1" arrows="1" fold="1" page="1" pageScale="1" pageWidth="827" pageHeight="1169" math="0" shadow="0">
      <root>
        <mxCell id="0" />
        <mxCell id="1" parent="0" />
        <mxCell id="O5gW3IwBXlm7uiFPy7R3-1" value="identificar si el numero del usuario es par o impar" style="rounded=0;whiteSpace=wrap;html=1;" vertex="1" parent="1">
          <mxGeometry x="310" y="50" width="160" height="60" as="geometry" />
        </mxCell>
        <mxCell id="O5gW3IwBXlm7uiFPy7R3-2" value="" style="endArrow=classic;html=1;rounded=0;" edge="1" parent="1">
          <mxGeometry width="50" height="50" relative="1" as="geometry">
            <mxPoint x="389.5" y="110" as="sourcePoint" />
            <mxPoint x="389.5" y="170" as="targetPoint" />
          </mxGeometry>
        </mxCell>
        <mxCell id="O5gW3IwBXlm7uiFPy7R3-3" value="solicitar numero al usuario" style="shape=parallelogram;perimeter=parallelogramPerimeter;whiteSpace=wrap;html=1;fixedSize=1;" vertex="1" parent="1">
          <mxGeometry x="320" y="180" width="140" height="60" as="geometry" />
        </mxCell>
        <mxCell id="O5gW3IwBXlm7uiFPy7R3-4" value="" style="endArrow=classic;html=1;rounded=0;" edge="1" parent="1">
          <mxGeometry width="50" height="50" relative="1" as="geometry">
            <mxPoint x="390" y="240" as="sourcePoint" />
            <mxPoint x="390" y="300" as="targetPoint" />
          </mxGeometry>
        </mxCell>
        <mxCell id="O5gW3IwBXlm7uiFPy7R3-5" value="El valor ingresado por el&amp;nbsp; usuario es válido" style="rhombus;whiteSpace=wrap;html=1;" vertex="1" parent="1">
          <mxGeometry x="320" y="310" width="140" height="140" as="geometry" />
        </mxCell>
        <mxCell id="O5gW3IwBXlm7uiFPy7R3-6" value="" style="endArrow=classic;html=1;rounded=0;" edge="1" parent="1">
          <mxGeometry width="50" height="50" relative="1" as="geometry">
            <mxPoint x="389.5" y="460" as="sourcePoint" />
            <mxPoint x="390" y="520" as="targetPoint" />
          </mxGeometry>
        </mxCell>
        <mxCell id="O5gW3IwBXlm7uiFPy7R3-7" value="" style="endArrow=classic;html=1;rounded=0;" edge="1" parent="1">
          <mxGeometry width="50" height="50" relative="1" as="geometry">
            <mxPoint x="470" y="380" as="sourcePoint" />
            <mxPoint x="530" y="380" as="targetPoint" />
          </mxGeometry>
        </mxCell>
        <mxCell id="O5gW3IwBXlm7uiFPy7R3-8" value="SI" style="text;html=1;align=center;verticalAlign=middle;resizable=0;points=[];autosize=1;strokeColor=none;fillColor=none;" vertex="1" parent="1">
          <mxGeometry x="414" y="430" width="30" height="30" as="geometry" />
        </mxCell>
        <mxCell id="O5gW3IwBXlm7uiFPy7R3-9" value="NO" style="text;html=1;align=center;verticalAlign=middle;resizable=0;points=[];autosize=1;strokeColor=none;fillColor=none;" vertex="1" parent="1">
          <mxGeometry x="444" y="320" width="40" height="30" as="geometry" />
        </mxCell>
        <mxCell id="O5gW3IwBXlm7uiFPy7R3-10" value="Ingresa un numero valido" style="shape=parallelogram;perimeter=parallelogramPerimeter;whiteSpace=wrap;html=1;fixedSize=1;" vertex="1" parent="1">
          <mxGeometry x="530" y="360" width="170" height="60" as="geometry" />
        </mxCell>
        <mxCell id="O5gW3IwBXlm7uiFPy7R3-11" value="El numero es divisible por 2 y su residuo es o&amp;nbsp;" style="rhombus;whiteSpace=wrap;html=1;" vertex="1" parent="1">
          <mxGeometry x="320" y="530" width="140" height="140" as="geometry" />
        </mxCell>
        <mxCell id="O5gW3IwBXlm7uiFPy7R3-12" value="NO" style="text;html=1;align=center;verticalAlign=middle;resizable=0;points=[];autosize=1;strokeColor=none;fillColor=none;" vertex="1" parent="1">
          <mxGeometry x="404" y="650" width="40" height="30" as="geometry" />
        </mxCell>
        <mxCell id="O5gW3IwBXlm7uiFPy7R3-13" value="SI" style="text;html=1;align=center;verticalAlign=middle;resizable=0;points=[];autosize=1;strokeColor=none;fillColor=none;" vertex="1" parent="1">
          <mxGeometry x="460" y="560" width="30" height="30" as="geometry" />
        </mxCell>
        <mxCell id="O5gW3IwBXlm7uiFPy7R3-14" value="" style="endArrow=classic;html=1;rounded=0;" edge="1" parent="1">
          <mxGeometry width="50" height="50" relative="1" as="geometry">
            <mxPoint x="470" y="599.5" as="sourcePoint" />
            <mxPoint x="520" y="599.5" as="targetPoint" />
          </mxGeometry>
        </mxCell>
        <mxCell id="O5gW3IwBXlm7uiFPy7R3-15" value="El numero es par" style="shape=parallelogram;perimeter=parallelogramPerimeter;whiteSpace=wrap;html=1;fixedSize=1;" vertex="1" parent="1">
          <mxGeometry x="520" y="570" width="170" height="60" as="geometry" />
        </mxCell>
        <mxCell id="O5gW3IwBXlm7uiFPy7R3-16" value="El numero es impar" style="shape=parallelogram;perimeter=parallelogramPerimeter;whiteSpace=wrap;html=1;fixedSize=1;" vertex="1" parent="1">
          <mxGeometry x="300" y="710" width="170" height="60" as="geometry" />
        </mxCell>
        <mxCell id="O5gW3IwBXlm7uiFPy7R3-17" value="" style="endArrow=classic;html=1;rounded=0;" edge="1" parent="1">
          <mxGeometry width="50" height="50" relative="1" as="geometry">
            <mxPoint x="389.5" y="674.5" as="sourcePoint" />
            <mxPoint x="389.5" y="710" as="targetPoint" />
          </mxGeometry>
        </mxCell>
      </root>
    </mxGraphModel>
  </diagram>
</mxfile>
